<svg version="1.1" viewBox="0.0 0.0 111.9737532808399 102.12073490813648" fill="none" stroke="none" stroke-linecap="square" stroke-miterlimit="10" xmlns:xlink="http://www.w3.org/1999/xlink" xmlns="http://www.w3.org/2000/svg"><clipPath id="p.0"><path d="m0 0l111.973755 0l0 102.120735l-111.973755 0l0 -102.120735z" clip-rule="nonzero"/></clipPath><g clip-path="url(#p.0)"><path fill="#000000" fill-opacity="0.0" d="m0 0l111.973755 0l0 102.120735l-111.973755 0z" fill-rule="evenodd"/><path fill="#ffffff" d="m0 51.05512l0 0c0 -28.196964 25.065002 -51.05512 55.984253 -51.05512l0 0c30.91925 0 55.984253 22.858154 55.984253 51.05512l0 0c0 28.196964 -25.065002 51.05512 -55.984253 51.05512l0 0c-30.91925 0 -55.984253 -22.858154 -55.984253 -51.05512z" fill-rule="evenodd"/><path fill="#000000" fill-opacity="0.0" d="m0.002624672 0l111.968506 0l0 116.34646l-111.968506 0z" fill-rule="evenodd"/><path fill="#000000" d="m40.418488 86.206245q-5.515625 0 -9.96875 -2.71875q-4.4375 -2.734375 -7.0 -7.890625q-2.546875 -5.15625 -2.546875 -12.203125q0 -12.15625 5.1875 -22.515625q5.203125 -10.359375 15.359375 -16.640625q10.171875 -6.28125 24.40625 -6.28125q3.6875 0 7.875 0.5625q4.203125 0.5625 7.640625 1.6875q2.25 0.640625 2.25 3.1875q0 2.09375 -1.5625 3.9375q-1.5625 1.828125 -3.640625 1.828125q-0.640625 0 -0.953125 -0.078125q-4.171875 -0.96875 -7.140625 -1.40625q-2.953125 -0.4375 -6.21875 -0.4375q-10.171875 0 -17.296875 4.921875q-7.109375 4.921875 -10.640625 13.0q-3.515625 8.078125 -3.515625 17.4375q0 6.796875 2.671875 10.53125q2.6875 3.71875 7.015625 3.71875q4.875 0 8.546875 -4.0q3.6875 -4.0 6.71875 -12.953125q3.046875 -8.96875 6.015625 -24.328125q0.484375 -2.25 1.921875 -3.046875q1.4375 -0.796875 3.828125 -0.796875q5.6875 0 5.6875 3.671875q0 0.640625 -0.234375 1.609375q-2.09375 7.75 -3.8125 17.15625q-1.71875 9.40625 -1.71875 14.28125q0 4.3125 1.28125 6.28125q1.28125 1.953125 3.921875 1.953125q2.5625 0 4.875 -1.71875q2.328125 -1.71875 5.84375 -5.875q0.96875 -1.125 2.15625 -1.125q1.046875 0 1.640625 0.96875q0.609375 0.953125 0.609375 2.640625q0 3.109375 -1.515625 4.953125q-3.921875 4.71875 -7.6875 7.203125q-3.765625 2.484375 -9.203125 2.484375q-5.59375 0 -9.046875 -3.234375q-3.4375 -3.25 -4.3125 -9.171875q-5.921875 12.40625 -17.4375 12.40625z" fill-rule="nonzero"/></g></svg>