<?xml version="1.0" encoding="UTF-8"?>
<!DOCTYPE svg
PUBLIC "-//W3C//DTD SVG 1.1//EN"
       "http://www.w3.org/Graphics/SVG/1.1/DTD/svg11.dtd">
<svg viewBox="26 15 848 485" width="822px" height="470px" xmlns="http://www.w3.org/2000/svg" version="1.1">
   <line x1="629" y1="440" x2="619" y2="440" style="stroke:#cb0;stroke-width:1;"/>
   <line x1="444" y1="67" x2="434" y2="67" style="stroke:#cb0;stroke-width:1;"/>
   <line x1="619" y1="440" x2="444" y2="67" style="stroke:#cb0;stroke-width:1;"/>
   <line x1="621.5" y1="440" x2="625.03553390593" y2="443.53553390593" style="stroke:#cb0;stroke-width:2;"/>
   <line x1="621.5" y1="440" x2="625.03553390593" y2="436.46446609407" style="stroke:#cb0;stroke-width:2;"/>
   <line x1="439" y1="67" x2="442.53553390593" y2="70.535533905933" style="stroke:#cb0;stroke-width:2;"/>
   <line x1="439" y1="67" x2="442.53553390593" y2="63.464466094067" style="stroke:#cb0;stroke-width:2;"/>
   <line x1="629" y1="420" x2="619" y2="420" style="stroke:#0bf;stroke-width:1;"/>
   <line x1="527" y1="251" x2="517" y2="251" style="stroke:#0bf;stroke-width:1;"/>
   <line x1="619" y1="420" x2="527" y2="251" style="stroke:#0bf;stroke-width:1;"/>
   <line x1="621.5" y1="420" x2="625.03553390593" y2="423.53553390593" style="stroke:#0bf;stroke-width:2;"/>
   <line x1="621.5" y1="420" x2="625.03553390593" y2="416.46446609407" style="stroke:#0bf;stroke-width:2;"/>
   <line x1="522" y1="251" x2="525.53553390593" y2="254.53553390593" style="stroke:#0bf;stroke-width:2;"/>
   <line x1="522" y1="251" x2="525.53553390593" y2="247.46446609407" style="stroke:#0bf;stroke-width:2;"/>
   <line x1="267" y1="403" x2="257" y2="403" style="stroke:#0bf;stroke-width:1;"/>
   <line x1="117" y1="376" x2="107" y2="376" style="stroke:#0bf;stroke-width:1;"/>
   <line x1="257" y1="403" x2="117" y2="376" style="stroke:#0bf;stroke-width:1;"/>
   <line x1="259.5" y1="403" x2="263.03553390593" y2="406.53553390593" style="stroke:#0bf;stroke-width:2;"/>
   <line x1="259.5" y1="403" x2="263.03553390593" y2="399.46446609407" style="stroke:#0bf;stroke-width:2;"/>
   <line x1="112" y1="376" x2="115.53553390593" y2="379.53553390593" style="stroke:#0bf;stroke-width:2;"/>
   <line x1="112" y1="376" x2="115.53553390593" y2="372.46446609407" style="stroke:#0bf;stroke-width:2;"/>
   <line x1="357" y1="423" x2="367" y2="423" style="stroke:#b0b;stroke-width:1;"/>
   <line x1="388" y1="251" x2="398" y2="251" style="stroke:#b0b;stroke-width:1;"/>
   <line x1="367" y1="423" x2="388" y2="251" style="stroke:#b0b;stroke-width:1;"/>
   <line x1="364.5" y1="423" x2="360.96446609407" y2="426.53553390593" style="stroke:#b0b;stroke-width:2;"/>
   <line x1="364.5" y1="423" x2="360.96446609407" y2="419.46446609407" style="stroke:#b0b;stroke-width:2;"/>
   <line x1="393" y1="251" x2="389.46446609407" y2="254.53553390593" style="stroke:#b0b;stroke-width:2;"/>
   <line x1="393" y1="251" x2="389.46446609407" y2="247.46446609407" style="stroke:#b0b;stroke-width:2;"/>
   <line x1="173" y1="60" x2="183" y2="60" style="stroke:#b0b;stroke-width:1;"/>
   <line x1="388" y1="251" x2="398" y2="251" style="stroke:#b0b;stroke-width:1;"/>
   <line x1="183" y1="60" x2="388" y2="251" style="stroke:#b0b;stroke-width:1;"/>
   <line x1="180.5" y1="60" x2="176.96446609407" y2="63.535533905933" style="stroke:#b0b;stroke-width:2;"/>
   <line x1="180.5" y1="60" x2="176.96446609407" y2="56.464466094067" style="stroke:#b0b;stroke-width:2;"/>
   <line x1="393" y1="251" x2="389.46446609407" y2="254.53553390593" style="stroke:#b0b;stroke-width:2;"/>
   <line x1="393" y1="251" x2="389.46446609407" y2="247.46446609407" style="stroke:#b0b;stroke-width:2;"/>
   <line x1="121" y1="176" x2="111" y2="176" style="stroke:#bbb;stroke-width:1;"/>
   <line x1="118" y1="281" x2="108" y2="281" style="stroke:#bbb;stroke-width:1;"/>
   <line x1="111" y1="176" x2="118" y2="281" style="stroke:#bbb;stroke-width:1;"/>
   <line x1="113.5" y1="176" x2="117.03553390593" y2="179.53553390593" style="stroke:#bbb;stroke-width:2;"/>
   <line x1="113.5" y1="176" x2="117.03553390593" y2="172.46446609407" style="stroke:#bbb;stroke-width:2;"/>
   <line x1="113" y1="281" x2="116.53553390593" y2="284.53553390593" style="stroke:#bbb;stroke-width:2;"/>
   <line x1="113" y1="281" x2="116.53553390593" y2="277.46446609407" style="stroke:#bbb;stroke-width:2;"/>
   <line x1="211" y1="196" x2="221" y2="196" style="stroke:#b0b;stroke-width:1;"/>
   <line x1="388" y1="251" x2="398" y2="251" style="stroke:#b0b;stroke-width:1;"/>
   <line x1="221" y1="196" x2="388" y2="251" style="stroke:#b0b;stroke-width:1;"/>
   <line x1="218.5" y1="196" x2="214.96446609407" y2="199.53553390593" style="stroke:#b0b;stroke-width:2;"/>
   <line x1="218.5" y1="196" x2="214.96446609407" y2="192.46446609407" style="stroke:#b0b;stroke-width:2;"/>
   <line x1="393" y1="251" x2="389.46446609407" y2="254.53553390593" style="stroke:#b0b;stroke-width:2;"/>
   <line x1="393" y1="251" x2="389.46446609407" y2="247.46446609407" style="stroke:#b0b;stroke-width:2;"/>
   <line x1="679" y1="332" x2="669" y2="332" style="stroke:#333;stroke-width:1;"/>
   <line x1="672" y1="216" x2="682" y2="216" style="stroke:#333;stroke-width:1;"/>
   <line x1="669" y1="332" x2="672" y2="216" style="stroke:#333;stroke-width:1;"/>
   <line x1="671.5" y1="332" x2="675.03553390593" y2="335.53553390593" style="stroke:#333;stroke-width:2;"/>
   <line x1="671.5" y1="332" x2="675.03553390593" y2="328.46446609407" style="stroke:#333;stroke-width:2;"/>
   <line x1="677" y1="216" x2="673.46446609407" y2="219.53553390593" style="stroke:#333;stroke-width:2;"/>
   <line x1="677" y1="216" x2="673.46446609407" y2="212.46446609407" style="stroke:#333;stroke-width:2;"/>
   <line x1="679" y1="312" x2="669" y2="312" style="stroke:#0b0;stroke-width:1;"/>
   <line x1="527" y1="251" x2="517" y2="251" style="stroke:#0b0;stroke-width:1;"/>
   <line x1="669" y1="312" x2="527" y2="251" style="stroke:#0b0;stroke-width:1;"/>
   <line x1="671.5" y1="312" x2="675.03553390593" y2="315.53553390593" style="stroke:#0b0;stroke-width:2;"/>
   <line x1="671.5" y1="312" x2="675.03553390593" y2="308.46446609407" style="stroke:#0b0;stroke-width:2;"/>
   <line x1="522" y1="251" x2="525.53553390593" y2="254.53553390593" style="stroke:#0b0;stroke-width:2;"/>
   <line x1="522" y1="251" x2="525.53553390593" y2="247.46446609407" style="stroke:#0b0;stroke-width:2;"/>
   <line x1="644" y1="124" x2="634" y2="124" style="stroke:#333;stroke-width:1;"/>
   <line x1="118" y1="281" x2="108" y2="281" style="stroke:#333;stroke-width:1;"/>
   <line x1="634" y1="124" x2="118" y2="281" style="stroke:#333;stroke-width:1;"/>
   <line x1="636.5" y1="124" x2="640.03553390593" y2="127.53553390593" style="stroke:#333;stroke-width:2;"/>
   <line x1="636.5" y1="124" x2="640.03553390593" y2="120.46446609407" style="stroke:#333;stroke-width:2;"/>
   <line x1="113" y1="281" x2="116.53553390593" y2="284.53553390593" style="stroke:#333;stroke-width:2;"/>
   <line x1="113" y1="281" x2="116.53553390593" y2="277.46446609407" style="stroke:#333;stroke-width:2;"/>
   <line x1="644" y1="144" x2="634" y2="144" style="stroke:#0bf;stroke-width:1;"/>
   <line x1="444" y1="67" x2="434" y2="67" style="stroke:#0bf;stroke-width:1;"/>
   <line x1="634" y1="144" x2="444" y2="67" style="stroke:#0bf;stroke-width:1;"/>
   <line x1="636.5" y1="144" x2="640.03553390593" y2="147.53553390593" style="stroke:#0bf;stroke-width:2;"/>
   <line x1="636.5" y1="144" x2="640.03553390593" y2="140.46446609407" style="stroke:#0bf;stroke-width:2;"/>
   <line x1="439" y1="67" x2="442.53553390593" y2="70.535533905933" style="stroke:#0bf;stroke-width:2;"/>
   <line x1="439" y1="67" x2="442.53553390593" y2="63.464466094067" style="stroke:#0bf;stroke-width:2;"/>
   <rect width="90" height="20" x="629" y="390" style="fill:#007;stroke:black;"/>
   <text width="90" height="20" x="634" y="404" style="fill:#fff;" font-family="Arial" font-size="16px"> acted_by</text>
   <rect width="90" height="20" x="629" y="410" style="fill:none;stroke:black;"/>
   <text width="90" height="20" x="634" y="424" style="fill:black;" font-family="Arial" font-size="16px">movie_title</text>
   <rect width="90" height="20" x="629" y="430" style="fill:none;stroke:black;"/>
   <text width="90" height="20" x="634" y="444" style="fill:black;" font-family="Arial" font-size="16px">actor_name</text>
   <rect width="90" height="20" x="629" y="450" style="fill:none;stroke:black;"/>
   <text width="90" height="20" x="634" y="464" style="fill:black;" font-family="Arial" font-size="16px">role</text>
   <rect width="50" height="20" x="384" y="37" style="fill:#007;stroke:black;"/>
   <text width="50" height="20" x="389" y="51" style="fill:#fff;" font-family="Arial" font-size="16px"> actor</text>
   <rect width="50" height="20" x="384" y="57" style="fill:none;stroke:black;"/>
   <text width="50" height="20" x="389" y="71" style="fill:black;" font-family="Arial" font-size="16px">name</text>
   <rect width="50" height="20" x="384" y="77" style="fill:none;stroke:black;"/>
   <text width="50" height="20" x="389" y="91" style="fill:black;" font-family="Arial" font-size="16px">bdate</text>
   <rect width="90" height="20" x="267" y="373" style="fill:#007;stroke:black;"/>
   <text width="90" height="20" x="272" y="387" style="fill:#fff;" font-family="Arial" font-size="16px"> directed_by</text>
   <rect width="90" height="20" x="267" y="393" style="fill:none;stroke:black;"/>
   <text width="90" height="20" x="272" y="407" style="fill:black;" font-family="Arial" font-size="16px">name</text>
   <rect width="90" height="20" x="267" y="413" style="fill:none;stroke:black;"/>
   <text width="90" height="20" x="272" y="427" style="fill:black;" font-family="Arial" font-size="16px">movie_title</text>
   <rect width="90" height="20" x="267" y="433" style="fill:none;stroke:black;"/>
   <text width="90" height="20" x="272" y="447" style="fill:black;" font-family="Arial" font-size="16px">is_acting</text>
   <rect width="64" height="20" x="43" y="346" style="fill:#007;stroke:black;"/>
   <text width="64" height="20" x="48" y="360" style="fill:#fff;" font-family="Arial" font-size="16px"> director</text>
   <rect width="64" height="20" x="43" y="366" style="fill:none;stroke:black;"/>
   <text width="64" height="20" x="48" y="380" style="fill:black;" font-family="Arial" font-size="16px">name</text>
   <rect width="64" height="20" x="43" y="386" style="fill:none;stroke:black;"/>
   <text width="64" height="20" x="48" y="400" style="fill:black;" font-family="Arial" font-size="16px">bdate</text>
   <rect width="68" height="20" x="105" y="30" style="fill:#007;stroke:black;"/>
   <text width="68" height="20" x="110" y="44" style="fill:#fff;" font-family="Arial" font-size="16px"> generes</text>
   <rect width="68" height="20" x="105" y="50" style="fill:none;stroke:black;"/>
   <text width="68" height="20" x="110" y="64" style="fill:black;" font-family="Arial" font-size="16px">title</text>
   <rect width="68" height="20" x="105" y="70" style="fill:none;stroke:black;"/>
   <text width="68" height="20" x="110" y="84" style="fill:black;" font-family="Arial" font-size="16px">generes</text>
   <rect width="90" height="20" x="121" y="146" style="fill:#007;stroke:black;"/>
   <text width="90" height="20" x="126" y="160" style="fill:#fff;" font-family="Arial" font-size="16px"> has_quotes</text>
   <rect width="90" height="20" x="121" y="166" style="fill:none;stroke:black;"/>
   <text width="90" height="20" x="126" y="180" style="fill:black;" font-family="Arial" font-size="16px">quote_id</text>
   <rect width="90" height="20" x="121" y="186" style="fill:none;stroke:black;"/>
   <text width="90" height="20" x="126" y="200" style="fill:black;" font-family="Arial" font-size="16px">movie_title</text>
   <rect width="119" height="20" x="398" y="221" style="fill:#007;stroke:black;"/>
   <text width="119" height="20" x="403" y="235" style="fill:#fff;" font-family="Arial" font-size="16px"> movie</text>
   <rect width="119" height="20" x="398" y="241" style="fill:none;stroke:black;"/>
   <text width="119" height="20" x="403" y="255" style="fill:black;" font-family="Arial" font-size="16px">title</text>
   <rect width="119" height="20" x="398" y="261" style="fill:none;stroke:black;"/>
   <text width="119" height="20" x="403" y="275" style="fill:black;" font-family="Arial" font-size="16px">year</text>
   <rect width="119" height="20" x="398" y="281" style="fill:none;stroke:black;"/>
   <text width="119" height="20" x="403" y="295" style="fill:black;" font-family="Arial" font-size="16px">length_of_movie</text>
   <rect width="119" height="20" x="398" y="301" style="fill:none;stroke:black;"/>
   <text width="119" height="20" x="403" y="315" style="fill:black;" font-family="Arial" font-size="16px">plot_outline</text>
   <rect width="130" height="20" x="679" y="282" style="fill:#007;stroke:black;"/>
   <text width="130" height="20" x="684" y="296" style="fill:#fff;" font-family="Arial" font-size="16px"> produced_by</text>
   <rect width="130" height="20" x="679" y="302" style="fill:none;stroke:black;"/>
   <text width="130" height="20" x="684" y="316" style="fill:black;" font-family="Arial" font-size="16px">movie_title</text>
   <rect width="130" height="20" x="679" y="322" style="fill:none;stroke:black;"/>
   <text width="130" height="20" x="684" y="336" style="fill:black;" font-family="Arial" font-size="16px">production_name</text>
   <rect width="151" height="20" x="682" y="186" style="fill:#007;stroke:black;"/>
   <text width="151" height="20" x="687" y="200" style="fill:#fff;" font-family="Arial" font-size="16px"> production_company</text>
   <rect width="151" height="20" x="682" y="206" style="fill:none;stroke:black;"/>
   <text width="151" height="20" x="687" y="220" style="fill:black;" font-family="Arial" font-size="16px">name</text>
   <rect width="151" height="20" x="682" y="226" style="fill:none;stroke:black;"/>
   <text width="151" height="20" x="687" y="240" style="fill:black;" font-family="Arial" font-size="16px">address</text>
   <rect width="67" height="20" x="41" y="251" style="fill:#007;stroke:black;"/>
   <text width="67" height="20" x="46" y="265" style="fill:#fff;" font-family="Arial" font-size="16px"> quotes</text>
   <rect width="67" height="20" x="41" y="271" style="fill:#aea;stroke:black;"/>
   <text width="67" height="20" x="46" y="285" style="fill:black;" font-family="Arial" font-size="16px">quote_id</text>
   <rect width="67" height="20" x="41" y="291" style="fill:none;stroke:black;"/>
   <text width="67" height="20" x="46" y="305" style="fill:black;" font-family="Arial" font-size="16px">quotes</text>
   <rect width="90" height="20" x="644" y="94" style="fill:#007;stroke:black;"/>
   <text width="90" height="20" x="649" y="108" style="fill:#fff;" font-family="Arial" font-size="16px"> spoken_by</text>
   <rect width="90" height="20" x="644" y="114" style="fill:none;stroke:black;"/>
   <text width="90" height="20" x="649" y="128" style="fill:black;" font-family="Arial" font-size="16px">quote_id</text>
   <rect width="90" height="20" x="644" y="134" style="fill:none;stroke:black;"/>
   <text width="90" height="20" x="649" y="148" style="fill:black;" font-family="Arial" font-size="16px">actor_name</text>
</svg>
